Russian Institute 11

Marc Dorcel

Category 	All Sex, Foreign, Schoolgirls
Director 	Herve Bodilis
Starring 	Aletta Ocean, Tarra White, Angelica Heart, Jasmine Rouge, Caty Cambel, Kathy Sweet

The "Russian Institute". A luxury boarding school for young heiresses of the Moscow upper middle class where nothing is neglected to complete their education.

Last innovation, the opening of a "Pony Club" where the young heiresses practice another kind of riding with their instructions' complicity. Thus, the pretty Natalia catches her girlfriend in the straw with two males and joins them for bold double penetration.

Mischievous, the girls tease men around and give up riding caps and jodhpurs to have their pussies and anus smashed, often both at the same time. And when the men are exhausted, some of the girls use their tongues, their fingers or huge dildos to satisfy their libido.

frond
 
http://bayimg.com/naMbhAadA

back
 
http://bayimg.com/NAMbmaADA

screen
 
http://bayimg.com/namBpAaDa

General
Complete name                    : C:\Downloads\Russian Institute 11\dvd\Russian Institute 11.avi
Format                           : AVI
Format/Info                      : Audio Video Interleave
File size                        : 806 MiB
Duration                         : 1h 24mn
Overall bit rate                 : 1 335 Kbps
Writing application              : MEncoder SVN-r30881(20100311-gcc4.3.3)
Writing library                  : MPlayer

Video
ID                               : 0
Format                           : MPEG-4 Visual
Format profile                   : Advanced Simple@L5
Format settings, BVOP            : 2
Format settings, QPel            : No
Format settings, GMC             : No warppoints
Format settings, Matrix          : Default (H.263)
Codec ID                         : XVID
Codec ID/Hint                    : XviD
Duration                         : 1h 24mn
Bit rate                         : 1 194 Kbps
Width                            : 720 pixels
Height                           : 480 pixels
Display aspect ratio             : 3:2
Frame rate                       : 25.000 fps
Standard                         : NTSC
Color space                      : YUV
Chroma subsampling               : 4:2:0
Bit depth                        : 8 bits
Scan type                        : Progressive
Compression mode                 : Lossy
Bits/(Pixel*Frame)               : 0.138
Stream size                      : 722 MiB (89%)
Writing library                  : XviD 1.2.1 (UTC 2008-12-04)

Audio
ID                               : 1
Format                           : MPEG Audio
Format version                   : Version 1
Format profile                   : Layer 3
Mode                             : Joint stereo
Mode extension                   : MS Stereo
Codec ID                         : 55
Codec ID/Hint                    : MP3
Duration                         : 1h 24mn
Bit rate mode                    : Constant
Bit rate                         : 128 Kbps
Channel(s)                       : 2 channels
Sampling rate                    : 44.1 KHz
Compression mode                 : Lossy
Delay relative to video          : 40ms
Stream size                      : 77.3 MiB (10%)
Alignment                        : Aligned on interleaves
Interleave, duration             : 26 ms (0.65 video frame)
Interleave, preload duration     : 522 ms
Writing library                  : LAME3.98

